<?xml version="1.0" encoding="utf-8"?>
<!-- Generator: Adobe Illustrator 19.0.0, SVG Export Plug-In . SVG Version: 6.00 Build 0)  -->
<svg version="1.1" id="Layer_1" xmlns="http://www.w3.org/2000/svg" xmlns:xlink="http://www.w3.org/1999/xlink" x="0px" y="0px"
	 viewBox="0 0 500 392" style="enable-background:new 0 0 500 400;" xml:space="preserve">
<style type="text/css">
	.st0{fill:#5C5C5C;}
	.st1{fill:#D51100;}
	.st2{fill:#FFFFFF;}
	.st3{fill:#171717;}
</style>
<g id="XMLID_1_">
	<path id="XMLID_2_" class="st0" d="M330.6,200.2c-25.9,0-46.9,20.3-46.9,45.3s21,45.3,46.9,45.3c25.9,0,46.9-20.3,46.9-45.3
		S356.6,200.2,330.6,200.2z M328.2,214.7c16.8,0,30.3,12.9,30.3,28.9c0,16-13.6,28.9-30.3,28.9s-30.3-12.9-30.3-28.9
		C297.9,227.6,311.4,214.7,328.2,214.7z"/>
	<path id="XMLID_5_" class="st1" d="M362.1,150.4c-1.5,0-2.7,0.6-4,1.5c-1.6,1.1-3,2.9-3.8,4.7c-4.3,9.1-8.3,17.8-12.3,26.5
		c-1,2.1-2.1,4.5-3.9,6.1c-1.1,1-2.2,1.9-3.6,1.5c-1.5-0.4-2-1.1-2.5-2.6c-0.7-1.8-0.6-5.4-0.8-7.4c-0.4-3.8,0.1-7.7-0.9-11.4
		c-0.5-1.7-2-5.6-4.4-5.7c-3.7-0.2-6.3,5.4-7.9,8.5c-3.7,7.3-4.9,15.5-4.8,27.3c0,1.3,0.1,3.8,0.1,3.8s5.2-1.8,7.8-2.3
		c1.5-0.3,3.1-0.5,4.7-0.7c1.6-0.2,3.2-0.2,4.8-0.2c1.6,0,3.2,0.1,4.8,0.2c1.6,0.2,3.1,0.4,4.7,0.7c3.1,0.6,6,1.5,8.8,2.6
		c2.8,1.1,5.5,2.5,8,4.2c2.5,1.6,4.8,3.5,7,5.5c2.1,2,4,4.3,5.7,6.7c1.7,2.4,3.1,5,4.3,7.7c1.2,2.7,2.1,5.6,2.7,8.5
		c0.3,1.5,0.6,3,0.7,4.5c0.2,1.5,0.2,3.1,0.2,4.6c0,1.6-0.1,3.1-0.2,4.6c-0.2,1.5-0.4,3-0.7,4.5c-0.6,2.9-1.6,5.8-2.7,8.5
		c-0.5,1.1-1,2.1-1.5,3.1l0.6,0.1c5.3,1.1,10.4,1.6,15.9,1.3c8.4-0.5,17.2-1,24.6-5c2.5-1.4,5.8-3.4,5.9-6.2
		c0.1-2.6-2.5-4.5-4.7-5.9c-2.2-1.4-5.5-1.5-8.1-1.9c-3.8-0.5-7.1-0.1-11.2-0.5c-3.3-0.4-8.3-1-9-4.5c-0.7-3.3,3.4-6.1,5.8-8.4
		c4.8-4.7,10.9-7.9,16.2-12.1c6.1-4.8,12-9.2,17.5-14.7c1.8-1.7,3.5-3.1,4.8-5.2c0.9-1.5,2.1-3.8,1.9-5.6c-0.1-1.2-0.7-2-1.7-2.7
		c-1.6-1.1-3.3-0.9-5.2-0.9c-2,0-3.6,0.5-5.5,1.1c-5.1,1.8-9.9,4.4-14.8,6.8c-3.6,1.8-6.8,4.5-10.6,5.6c-2.3,0.6-5.7,2.2-7.2,0.3
		c-1.5-1.8,0.8-4.6,1.7-6.8c1.9-4.4,4.9-8.3,7.4-12.4c2.8-4.6,6.2-8.8,8.8-13.5c1.3-2.3,2.9-4.6,3.3-7.2c0.3-1.9,0.4-4-0.5-5.7
		c-0.5-1-1.4-1.8-2.5-2.1c-1.9-0.5-4,0.4-5.9,1.2c-2.7,1.2-6.2,3.8-8.2,5.9c-6.8,7.1-12.3,13.4-18.8,20c-2.2,2.3-5.2,6.3-8.1,5
		c-2-0.9-1.6-4.2-1.3-6.3c0.8-6.5,2.2-13.2,2.9-19.9c0.4-3.1,1-6.5,0.8-9.4c-0.1-1.6-0.3-3.1-1.3-4.4c-0.7-0.9-2-1.4-3.1-1.6
		C362.5,150.4,362.3,150.4,362.1,150.4L362.1,150.4z M328.2,214.7c-2.1,0-4.1,0.2-6.1,0.6c-2,0.4-3.9,0.9-5.7,1.6l-0.1,0.1l0.1,0.2
		c3.4,8.9,7.4,18,13.6,25.3c6.2,7.3,14.3,13.2,22.9,17.7l0.2,0.1c0.1-0.2,0.2-0.3,0.3-0.5c1.1-1.5,2-3.2,2.8-4.9
		c0.8-1.7,1.4-3.5,1.8-5.4c0.4-1.9,0.6-3.8,0.6-5.8c0-2-0.2-3.9-0.6-5.8c-0.4-1.9-1-3.7-1.8-5.4c-0.8-1.7-1.7-3.4-2.8-4.9
		c-1.1-1.5-2.3-2.9-3.7-4.3c-1.4-1.3-2.9-2.5-4.5-3.6c-1.6-1-3.3-1.9-5.2-2.7c-1.8-0.7-3.7-1.3-5.7-1.7
		C332.3,214.9,330.3,214.7,328.2,214.7z"/>
	<path id="XMLID_8_" class="st2" d="M372.4,266.2c0.6-1,1-2,1.5-3.1c1.2-2.7,2.1-5.6,2.7-8.5c0.3-1.5,0.6-3,0.7-4.5
		c0.2-1.5,0.2-3.1,0.2-4.6c0-1.6-0.1-3.1-0.2-4.6c-0.2-1.5-0.4-3-0.7-4.5c-0.6-2.9-1.6-5.8-2.7-8.5c-1.2-2.7-2.6-5.3-4.3-7.7
		c-1.7-2.4-3.6-4.6-5.7-6.7c-2.1-2-4.5-3.9-7-5.5c-2.5-1.6-5.1-3-8-4.2c-2.8-1.1-5.8-2-8.8-2.6c-1.5-0.3-3.1-0.5-4.7-0.7
		c-1.6-0.2-3.2-0.2-4.8-0.2c-1.6,0-3.2,0.1-4.8,0.2c-1.6,0.2-3.1,0.4-4.7,0.7c-2.6,0.5-5.4,1.3-7.8,2.2c0.3,3.7,1.3,9.4,2.9,13.6
		l0.1,0c1.8-0.7,3.7-1.3,5.7-1.7c2-0.4,4-0.6,6.1-0.6c2.1,0,4.1,0.2,6.1,0.6c2,0.4,3.9,1,5.7,1.7c1.8,0.7,3.5,1.6,5.2,2.6
		c1.6,1,3.1,2.2,4.5,3.6c1.4,1.3,2.6,2.7,3.7,4.3c1.1,1.5,2,3.2,2.8,4.9c0.8,1.7,1.4,3.5,1.8,5.4c0.4,1.9,0.6,3.8,0.6,5.8
		c0,2-0.2,3.9-0.6,5.8c-0.4,1.9-1,3.7-1.8,5.4c-0.8,1.7-1.7,3.4-2.8,4.9c-0.1,0.2-0.2,0.3-0.4,0.5
		C359.4,263.2,366.4,265,372.4,266.2z"/>
	<path id="XMLID_9_" class="st3" d="M138.9,245.8c-1.9,0-3.5,1.6-3.5,3.6v40.1c0,2,1.5,3.6,3.5,3.6c1.9,0,3.5-1.6,3.5-3.6v-40.1
		C142.4,247.4,140.9,245.8,138.9,245.8z M152.6,245.8c-1.9,0-3.5,1.6-3.5,3.6v40.1c0,2,1.6,3.6,3.5,3.6c1.9,0,3.5-1.6,3.5-3.6v-5.1
		l5.4-5.2l10.8,12.8c1,1.3,3.6,1.3,4.8,0.2c1.3-1.2,1.1-3.6,0.1-4.9l-10.4-13.1l10-9.6c1.6-1.6,1.2-3.7-0.1-4.8
		c-1.7-1.4-3.6-1-4.9,0.2L156,274.7v-25.3C156,247.4,154.5,245.8,152.6,245.8L152.6,245.8z M70.5,248.5c-1.7,0-3,1.4-3,3.2
		s1.3,3.2,3,3.2h12.2v34.9c0,1.9,1.5,3.3,3.5,3.3c1.9,0,3.5-1.5,3.5-3.3v-34.9h12.6c1.7,0,3-1.4,3-3.2s-1.3-3.2-3-3.2H70.5
		L70.5,248.5z M196.5,258.6c-9.9,0-17.9,7.8-17.9,17.5s8,17.5,17.9,17.5s17.9-7.8,17.9-17.5S206.4,258.6,196.5,258.6z M256.6,258.8
		c-1,0-2.1,0.1-3.1,0.3c-1.8,0.4-3.6,1.1-5.2,2c-1.3,0.7-3.5,2.4-3.5,2.4s-2.3-3.2-6.5-4.3c-0.9-0.2-1.9-0.5-2.9-0.5
		c-1.7,0-3.6,0.1-5.2,0.7c-1.9,0.7-5.1,3.2-5.1,3.2v-0.2c0-2-1.5-3.2-3.5-3.2c-2.4,0-3.5,1.6-3.5,3.6v26.7c0,2,1.5,3.6,3.5,3.6
		s3.5-1.6,3.5-3.6v-17.1c0-2.5,1.6-4.7,3.7-6.1c0.9-0.6,2.5-0.8,3.5-0.9c1.2-0.1,2.2-0.1,3.9,0.3c2,0.6,4.2,3,4.2,6.7v17.1
		c0,2,1.5,3.6,3.5,3.6c1.9,0,3.5-1.6,3.5-3.6v-17.9c0-1.8,1.8-4,3.2-5c1.3-0.9,2.9-1.3,4.5-1.3c1.3,0,2.6,0,3.8,0.9
		c0.9,0.6,1.8,1.6,2.3,2.6c0.6,1.1,0.9,1.5,0.9,2.8l0,0.2v17.7c0,2,1.5,3.6,3.5,3.6c1.9,0,3.5-1.9,3.5-3.6v-19
		c0-3.5-1.2-5.4-2.2-6.7c-1-1.3-2.4-2.2-3.7-3.1c-1.1-0.7-2.3-1.2-3.6-1.5C258.6,259,257.6,258.8,256.6,258.8z M115.5,258.9
		c-10.4,0-17,7.8-17,17.5c0,9.7,7.3,17.2,17.2,17.2c7.2,0,10-1.2,13-4.3c1-1,2-3.8,0.4-5.3c-1.2-1.2-3.5-0.8-4.4-0.1
		c-2.7,2-5.4,3.4-9.1,3.4c-5.2,0-9.1-3.7-9.3-8H126c2.3,0,3.2-0.6,4-1.2c0.6-0.5,1.4-2.1,1.4-2.9
		C131.4,266.6,125.4,258.9,115.5,258.9L115.5,258.9z M196.5,264.8c6.1,0,11,5.1,11,11.4c0,6.3-4.9,11.5-11,11.5
		c-6.1,0-11-5.1-11-11.5C185.5,269.9,190.4,264.8,196.5,264.8z M115.1,264.9c5.9,0,8.6,4.2,8.6,7.9h-17.5
		C106.2,269.2,109.3,264.9,115.1,264.9L115.1,264.9z"/>
	<path id="XMLID_18_" class="st3" d="M179.2,302.2c-1.8,0-3.3,1.5-3.3,3.3v14.6c-2.3-3.1-5.8-5.5-11.3-5.3
		c-9.9,0.4-17.1,6.9-17.1,17.4c0,9.7,6.8,17.2,16.7,17.2c5.7,0,9.4-2.7,11.8-5.9v2.3c0,1.9,1.5,3.3,3.3,3.3c1.8,0,3.3-1.5,3.3-3.3
		v-40.3C182.5,303.7,181,302.2,179.2,302.2L179.2,302.2z M102.2,303.8c-1.8,0-3.3,1.6-3.3,3.5v38.2c0,2,1.5,3.5,3.3,3.5
		c1.8,0,3.3-1.6,3.3-3.5v-38.2C105.6,305.4,104.1,303.8,102.2,303.8z M308.6,314.6c-2.3,0.1-4.7,0.4-6.8,1.4
		c-1.7,0.8-3.2,2.1-4.2,3.7c-0.9,1.5-1.5,3.2-1.4,5c0,1.7,0.6,3.5,1.6,5c1,1.4,2.6,2.4,4.1,3.2c2.1,1.1,4.5,1.5,6.7,2.4
		c1.8,0.6,3.8,0.8,5.2,2c0.8,0.7,1.5,1.8,1.5,2.9c0,1.2-0.7,2.2-1.6,2.9c-1,0.9-2.8,1-4.2,1c-1.6,0-2.9-0.2-4.4-0.7
		c-1-0.3-1.9-0.8-2.8-1.2c-0.8-0.4-1.5-0.9-2.3-1.2c-0.8-0.3-1.6-0.9-2.4-0.7c-0.9,0.2-1.7,1-2,1.8c-0.3,0.7-0.2,1.2,0.1,1.9
		c0.4,0.9,1.2,1.7,2,2.3c1.2,0.9,3,1.7,4.5,2.1c2.2,0.7,4.2,1.1,6.5,1c2.4,0,4.8-0.2,7.1-1c2.1-0.8,3.5-2,4.7-3.8
		c1.1-1.7,1.5-3.3,1.4-5.4c-0.1-1.4-0.1-3-0.8-4.2c-0.8-1.3-2.1-2.4-3.4-3.3c-1.8-1.2-3.6-1.6-5.6-2.4c-1.6-0.6-3.2-1.2-4.7-1.9
		c-1-0.4-2.1-0.7-2.9-1.4c-0.6-0.6-1.1-1.4-1.1-2.3c0-1,0.7-1.9,1.4-2.5c1-0.8,2.4-1,3.6-1c1.1,0,2.4,0.3,3.5,0.7
		c1,0.3,1.8,0.9,2.7,1.3c1.1,0.4,2.1,1.1,3.3,1c1,0,2.3-0.1,2.9-1c0.5-0.8,0.3-2-0.1-2.9c-0.5-1-1.6-1.8-2.6-2.4
		c-1.3-0.8-2.7-1.1-4.2-1.6C312.3,314.8,310.5,314.6,308.6,314.6z M204.4,314.7c-9.9,0-17.9,7.8-17.9,17.5c0,9.7,8,17.5,17.9,17.5
		c9.9,0,17.9-7.8,17.9-17.5C222.3,322.5,214.3,314.7,204.4,314.7z M278.2,314.7c-10.4,0-17.1,7.8-17.1,17.5
		c0,9.7,7.3,17.2,17.2,17.2c7.2,0,10-1.2,13-4.3c1-1,2-3.7,0.4-5.3c-1.2-1.2-3.5-0.8-4.4-0.1c-2.7,2-5.4,3.4-9.1,3.4
		c-5.2,0-9.1-3.7-9.3-8h19.7c2.3,0,3.2-0.6,4-1.2c0.6-0.5,1.4-2.1,1.4-2.9C294.1,322.5,288,314.7,278.2,314.7z M353,314.9
		c-2.3,0-4.7,0.2-6.9,0.9c-1.2,0.4-2.5,0.9-3.4,1.9c-0.7,0.7-1.3,1.8-1.2,2.7c0.1,0.9,0.6,1.6,1.8,2c2.1,0.7,3.5-0.6,6.4-1.4
		c3.2-0.9,7.4-0.8,10,1.2c1.8,1.4,2.5,5.8,2.6,6.4c-0.7-0.2-1.6-0.5-2.3-0.6c-1.7-0.3-3.4-0.3-5.1-0.3c-2.2,0-4.5,0-6.6,0.5
		c-2.1,0.5-4.3,0.9-6,2.3c-1.5,1.3-2.6,3.2-3.2,5c-0.7,2.2-0.6,5.2,0.3,7.3c1,2.4,2.9,3.7,5.1,4.9c2.1,1.2,4.7,1.7,7.2,1.7
		c3,0,6.1-0.9,8.5-2.5c0.9-0.6,2.1-2.4,2.1-2.4l0,1.5c-0.1,1.8,1.5,3.3,3.3,3.3c1.8,0,3.3-1.5,3.3-3.3v-8.9c0,0,0-8.6-0.7-13
		c-0.3-2.1-1.9-4.2-3.4-5.6c-1.3-1.3-2.7-1.9-4.2-2.4C358.2,315.2,355.6,314.9,353,314.9z M128.9,315c-1.4,0-3.1,0.2-4.1,0.5
		c-2.1,0.7-5.5,3.1-5.5,3.1v-0.2c0-1.2-0.4-3.2-3.3-3.2c-2.4,0-3.1,1.9-3.1,3.9v26.7c0,2,1.5,3.6,3.5,3.6c1.9,0,3.5-1.6,3.5-3.6
		v-17.1c0-2.5,1.6-4.7,3.7-6.1c0.9-0.6,2.5-0.8,3.5-1c1.2-0.1,2.2-0.1,3.9,0.3c2,0.6,4.9,3,4.9,6.7v17.1c0,2,1.5,3.6,3.5,3.6
		c1.9,0,3.5-1.6,3.5-3.6V328c0-3.9-1.1-6.5-2.6-8.5c-1.6-2-4.4-3.5-6.9-4.2l-0.2,0c-1-0.2-2-0.3-3-0.3
		C129.8,315,129.3,315,128.9,315z M243.1,315c-1.4,0-3.1,0.2-4.1,0.5c-2.1,0.7-5.5,3.1-5.5,3.1v-0.2c0-1.2-0.4-3.2-3.3-3.2
		c-2.4,0-3.1,1.9-3.1,3.9v26.7c0,2,1.5,3.6,3.5,3.6c1.9,0,3.5-1.6,3.5-3.6v-17.1c0-2.5,1.6-4.7,3.7-6.1c0.9-0.6,2.5-0.8,3.5-1
		c1.2-0.1,2.2-0.1,3.9,0.3c2,0.6,4.9,3,4.9,6.7v17.1c0,2,1.5,3.6,3.5,3.6c1.9,0,3.5-1.6,3.5-3.6V328c0-3.9-1.1-6.5-2.6-8.5
		c-1.6-2-4.4-3.5-6.9-4.2l-0.2,0c-1-0.2-2-0.3-3-0.3C244.1,315,243.6,315,243.1,315z M330.6,315.2c-1.8,0-3.3,1.5-3.3,3.3v27.3
		c0,1.8,1.5,3.3,3.3,3.3c1.8,0,3.3-1.5,3.3-3.3v-27.3C333.9,316.7,332.4,315.2,330.6,315.2z M277.7,320.8c5.9,0,8.6,4.2,8.6,7.9
		h-17.5C268.9,325.1,272,320.8,277.7,320.8z M204.3,320.9c6.1,0,11,5.1,11,11.4c0,6.3-4.9,11.5-11,11.5c-6.1,0-11-5.1-11-11.5
		C193.3,326,198.2,320.9,204.3,320.9z M164.9,321c6.1,0,11,5.1,11,11.4c0,6.3-4.7,10.8-10.8,10.8c-6.1,0-10.8-4.5-10.8-10.8
		C154.3,326.1,158.8,321,164.9,321z M353.3,332.7c1.9-0.1,3.9,0.1,5.8,0.4c0.9,0.1,2.3,0.4,3.4,0.6c0,0.2,0.2,3-0.3,4.3
		c-0.7,1.8-1.8,3.8-3.5,4.8c-1.8,1.1-4.3,1.3-6.4,1.3c-1.7,0-3.5-0.4-4.8-1.4c-1.3-0.9-2-2.2-2.1-3.7c-0.1-1.8,0.3-3.5,1.7-4.7
		C348.7,332.9,351.2,332.8,353.3,332.7z"/>
</g>
</svg>
